<svg class="main-svg" xmlns="http://www.w3.org/2000/svg" xmlns:xlink="http://www.w3.org/1999/xlink" width="700" height="450" style="" viewBox="0 0 700 450"><rect x="0" y="0" width="700" height="450" style="fill: rgb(255, 255, 255); fill-opacity: 1;"/><defs id="defs-a8f8a4"><g class="clips"><clipPath class="plotclip" id="clipa8f8a4xyplot"><rect width="580" height="330"/></clipPath><clipPath class="axesclip" id="clipa8f8a4x"><rect x="60" y="0" width="580" height="450"/></clipPath><clipPath class="axesclip" id="clipa8f8a4y"><rect x="0" y="60" width="700" height="330"/></clipPath><clipPath class="axesclip" id="clipa8f8a4xy"><rect x="60" y="60" width="580" height="330"/></clipPath></g><g class="gradients"/></defs><g class="bglayer"><rect class="bg" x="60" y="60" width="580" height="330" style="fill: rgb(255, 255, 255); fill-opacity: 1; stroke-width: 0;"/></g><g class="layer-below"><g class="imagelayer"/><g class="shapelayer"/></g><g class="cartesianlayer"><g class="subplot xy"><g class="layer-subplot"><g class="shapelayer"/><g class="imagelayer"/></g><g class="gridlayer" transform="translate(60,60)"><path class="xgrid crisp" d="M0,0v330" transform="translate(120.83,0)" style="stroke: rgb(238, 238, 238); stroke-opacity: 1; stroke-width: 1px;"/><path class="xgrid crisp" d="M0,0v330" transform="translate(241.67,0)" style="stroke: rgb(238, 238, 238); stroke-opacity: 1; stroke-width: 1px;"/><path class="xgrid crisp" d="M0,0v330" transform="translate(362.5,0)" style="stroke: rgb(238, 238, 238); stroke-opacity: 1; stroke-width: 1px;"/><path class="xgrid crisp" d="M0,0v330" transform="translate(483.33,0)" style="stroke: rgb(238, 238, 238); stroke-opacity: 1; stroke-width: 1px;"/><path class="ygrid crisp" d="M0,0h580" transform="translate(0,273.07)" style="stroke: rgb(238, 238, 238); stroke-opacity: 1; stroke-width: 1px;"/><path class="ygrid crisp" d="M0,0h580" transform="translate(0,232.64)" style="stroke: rgb(238, 238, 238); stroke-opacity: 1; stroke-width: 1px;"/><path class="ygrid crisp" d="M0,0h580" transform="translate(0,192.21)" style="stroke: rgb(238, 238, 238); stroke-opacity: 1; stroke-width: 1px;"/><path class="ygrid crisp" d="M0,0h580" transform="translate(0,151.78)" style="stroke: rgb(238, 238, 238); stroke-opacity: 1; stroke-width: 1px;"/><path class="ygrid crisp" d="M0,0h580" transform="translate(0,111.35)" style="stroke: rgb(238, 238, 238); stroke-opacity: 1; stroke-width: 1px;"/><path class="ygrid crisp" d="M0,0h580" transform="translate(0,70.93)" style="stroke: rgb(238, 238, 238); stroke-opacity: 1; stroke-width: 1px;"/><path class="ygrid crisp" d="M0,0h580" transform="translate(0,30.5)" style="stroke: rgb(238, 238, 238); stroke-opacity: 1; stroke-width: 1px;"/></g><g class="overgrid"/><g class="zerolinelayer" transform="translate(60,60)"><path class="xzl zl crisp" d="M0,0v330" transform="translate(0,0)" style="stroke: rgb(68, 68, 68); stroke-opacity: 1; stroke-width: 1px;"/><path class="yzl zl crisp" d="M0,0h580" transform="translate(0,313.5)" style="stroke: rgb(68, 68, 68); stroke-opacity: 1; stroke-width: 1px;"/></g><g class="overzero"/><path class="xlines-below"/><path class="ylines-below"/><g class="overlines-below"/><g class="xaxislayer-below"/><g class="yaxislayer-below"/><g class="overaxes-below"/><g class="plot" transform="translate(60, 60)" clip-path="url(#clipa8f8a4xyplot)"><g class="imagelayer"/><g class="maplayer"/><g class="barlayer"/><g class="carpetlayer"/><g class="boxlayer"/><g class="scatterlayer"><g class="trace scatter trace6d2e83" style="stroke-miterlimit: 2; opacity: 1;"><path class="js-line" d="M0,313.5L0.24,16.5L0.97,32.39L1.21,34.62L1.93,39.38L2.17,48.62L3.87,54.54L4.11,66.19L5.8,73.7L6.04,81.64L6.77,82.86L7.01,83.51L7.73,85.47L7.98,92.18L9.18,91.59L9.43,91.93L9.67,92.6L9.91,95.9L11.12,98.5L11.36,98.46L11.6,98.52L11.84,101.79L12.08,101.5L12.33,102.25L12.57,102.68L13.53,103.24L13.78,105.09L14.26,104.26L14.5,104.89L14.74,104.87L17.88,111.12L18.13,111.15L18.61,110.47L18.85,110.83L19.09,111.19L19.33,111.18L19.58,112.4L20.3,112.13L20.54,113.06L20.78,112.76L21.27,113.29L21.51,113.71L21.75,113.52L21.99,114.77L23.2,115.93L23.44,114.56L23.93,115.24L24.17,115.84L25.13,116.53L25.38,118.66L26.34,119.92L26.58,119.53L27.07,118.86L27.31,119.59L27.55,120.28L28.52,119.11L28.76,119.29L29.97,118.72L30.21,119.06L30.93,119.24L31.18,121.9L31.42,122.72L31.66,121.55L31.9,121.52L32.87,122.26L33.11,120.56L33.35,120.5L33.59,121.74L33.83,121.53L34.08,122.24L34.32,122.36L34.56,121.91L35.04,122.29L35.28,122.67L36.01,123.9L36.25,123.58L36.49,123.77L37.22,123.12L37.46,124.01L37.7,124.62L38.18,123.87L38.42,124L38.67,123.92L38.91,125.58L39.15,126.87L39.39,126.23L39.63,125.22L40.6,125L40.84,123.22L42.29,125.24L42.53,125.36L42.78,126.27L43.02,123.92L43.98,125.94L44.23,125.78L44.47,125.8L44.71,128.33L45.43,126.49L45.92,126.74L46.16,126.87L46.4,127.33L46.64,124.9L47.37,128.77L47.61,128.69L47.85,128.55L49.06,127.08L49.3,127.47L49.54,128.22L50.03,127.86L50.27,127.46L50.75,130.32L51.23,128.82L51.48,129.28L52.2,129.15L52.44,125.28L53.17,129.67L53.41,129.59L53.65,129.45L54.38,128.06L54.62,129.07L56.07,129.61L56.31,133.53L56.79,130.33L57.28,130.57L57.52,130.89L58,130.55L58.24,132.92L59.21,130.54L59.45,130.29L60.9,131.5L61.14,131.43L63.32,132.37L63.56,131.42L63.8,130.68L64.04,132.24L64.28,133.08L64.53,132.22L65.01,132.69L65.25,132.57L65.73,131.92L65.97,133.83L66.22,132.14L66.7,133.99L66.94,133.04L68.63,131.34L68.88,132.22L69.6,131.97L69.84,133.76L71.05,132.65L71.29,132.5L71.53,132.72L71.78,131.58L72.02,133.1L72.74,132.95L72.98,133.24L73.71,132.67L73.95,133.6L74.43,135.04L74.68,133.98L75.4,133.67L75.64,138.56L77.33,134.68L77.58,137.48L78.3,134.78L78.54,135.27L78.78,135.31L79.27,134.86L79.51,135.95L79.99,134.36L80.47,134.9L80.72,134.89L81.2,135.29L81.44,140.57L82.65,135.7L82.89,135.61L83.13,135.27L83.38,136.69L83.62,137.54L83.86,136.06L84.1,137.13L84.34,136.74L85.07,136.56L85.31,135.47L87,135.61L87.24,132.25L88.21,135.15L88.45,135.34L88.93,136.09L89.18,133.26L90.38,135.46L90.63,135.57L90.87,135.47L91.11,140.56L91.35,136.73L91.83,137.23L92.08,137.16L93.04,135.12L93.53,135.51L93.77,136.64L94.73,137.2L94.98,136.89L95.22,137.03L95.46,136.04L96.67,136.88L96.91,135.73L97.88,137.73L98.12,137.81L99.33,138.36L99.57,138.7L101.02,135.72L101.26,137.1L102.47,137.48L102.71,136.33L103.68,138.04L103.92,137.74L104.64,138.03L104.88,139.18L105.13,139.22L105.37,140.02L106.58,136.99L107.06,137.29L107.3,137.66L108.03,139.04L108.27,138.61L108.51,137.68L108.75,136.55L108.99,137.67L109.23,138.55L110.93,140.76L111.17,140.26L111.41,140.33L112.62,138.61L112.86,139.42L113.34,139.02L113.58,139.53L113.83,139.45L114.55,140.28L114.79,139.14L115.03,138.56L115.28,139.09L115.52,139.34L116,139.64L116.24,140.7L116.48,140.77L116.73,139.52L118.18,141.73L118.42,140.36L118.9,141.79L119.14,141.27L119.38,140.84L119.87,140.43L120.11,139.79L120.35,141.87L120.83,141.08L121.08,140.74L121.8,140.74L122.04,143.39L123.73,140.49L123.98,138.69L125.18,140.43L125.43,140.2L125.67,140.54L126.63,142.7L126.88,142.84L128.08,141.46L128.32,141.32L128.57,141.7L128.81,140.87L129.05,140.65L130.74,140.27L130.98,141.09L132.19,143.21L132.43,142.71L132.68,142.09L133.16,142.05L133.4,142.4L133.64,140.63L133.88,139.83L134.13,141.23L134.37,141.85L135.33,142.24L135.57,144.12L136.54,142.72L136.78,142.86L137.75,140.26L137.99,141.54L138.96,142.56L139.2,142.53L139.44,144.54L139.68,142.12L139.93,141.55L141.38,144.83L141.62,142.74L141.86,144.19L142.34,143.39L142.58,143.61L143.07,142.88L143.31,146.3L143.55,146.73L143.79,146L144.03,144.81L144.76,142.97L145,143.33L145.24,144.81L145.48,145.3L145.73,144.63L145.97,144.1L146.93,143.57L147.18,140.36L147.9,142.28L148.14,142.23L148.38,142.69L148.87,142.79L149.11,146.37L149.35,144.54L150.07,144.74L150.32,144.59L151.53,143.45L151.77,144.43L152.01,143.89L152.49,144.13L152.73,144.33L152.98,144.66L153.22,143.64L154.18,144.95L154.67,144.5L154.91,142.54L156.12,144.61L156.36,144.4L156.6,143.58L156.84,142.61L157.08,143.1L157.32,143.8L158.53,144.14L158.78,141.86L159.26,144.25L159.74,143.79L159.98,143.93L160.71,145.12L160.95,143.81L161.19,143.61L161.43,143.92L161.68,144.48L162.4,144.86L162.64,143.52L164.09,144.79L164.33,144.6L164.58,145.22L164.82,143.14L166.51,147.17L166.75,144.25L166.99,145.7L167.48,144.36L167.72,144.71L168.2,145.29L168.44,143.97L169.65,146.12L169.89,146.25L170.13,146.43L170.38,145.27L170.86,147.71L171.1,146.16L171.34,145.72L172.07,145.95L172.31,147.38L173.28,144.95L173.52,145.58L174,145.47L174.24,144.63L174.97,146.27L175.21,145.96L175.45,145.24L175.93,145.27L176.18,147.96L177.14,145.51L177.38,145.77L177.87,146.07L178.11,148.81L179.08,146.74L179.32,146.1L179.8,146.02L180.04,147.47L180.28,147.75L180.53,146.14L180.77,146.8L181.25,146.05L181.49,146.35L181.73,146.17L181.98,147.97L182.22,146.56L182.7,146.91L182.94,147.54L183.91,144.7L184.39,145.38L184.63,145.73L185.6,146.81L185.84,144.6L187.05,147.16L187.29,147.2L187.53,147.5L187.78,144.21L188.98,146.6L189.23,146.1L189.71,147L189.95,146.44L190.19,148.28L191.4,147.39L191.64,148.15L192.85,147.03L193.09,147.11L193.33,146.57L193.58,147.57L193.82,148.11L195.27,147.09L195.51,145.45L196.96,147.27L197.2,147.36L197.44,149.49L197.68,147.08L197.93,147.28L198.17,147.39L198.65,146.38L198.89,146.74L199.13,146.91L199.38,144.32L199.86,145.68L200.1,146.19L201.07,147.93L201.31,151.49L202.03,148.81L202.28,148.93L202.52,148.75L203,147.6L203.48,148.12L203.73,148.83L204.69,148.13L204.93,148.19L205.42,146.16L205.66,147.3L205.9,147.78L207.11,149.51L207.35,148.96L207.59,148.63L209.04,149.45L209.28,147.93L210.25,148.42L210.49,148.67L210.73,148.55L210.98,144.04L211.94,149.35L212.18,149.13L213.15,147.48L213.39,147.89L213.63,148.83L213.88,149.58L214.36,148.8L214.6,148.64L214.84,150.42L215.33,149.12L215.57,149.24L216.53,148.97L216.78,149.04L217.02,150.53L217.5,149.86L217.74,149.51L218.47,149.39L218.71,145.99L219.68,148.89L219.92,148.47L220.4,148.65L220.64,150.94L220.88,150.55L221.13,150.97L221.37,151.21L222.82,148.54L223.06,149.05L223.54,150.08L223.78,149.85L224.03,149.39L224.51,149.72L224.75,148.63L226.2,149.12L226.44,150.29L227.17,150.3L227.41,149.82L227.89,149.12L228.13,149.26L228.38,153.47L229.58,149.97L229.83,149.79L230.07,149.51L230.31,147.99L231.28,150.37L231.52,151.09L232,150.49L232.24,152.18L232.97,150.92L233.21,149.93L234.18,150.2L234.42,148.96L234.66,147.93L234.9,149.59L235.14,150.32L235.38,150.76L235.87,150.36L236.11,147.74L236.59,150.11L237.08,149.67L237.32,150.13L237.8,150.08L238.04,151.68L238.77,150.55L239.25,150.91L239.49,150.44L240.22,150.32L240.46,150.22L241.18,149.5L241.43,149.91L241.67,149.98L242.39,152.7L242.63,152.03L243.36,150.8L243.6,151.13L243.84,151.59L244.33,150.41L244.57,150.47L244.81,150.84L245.78,151.79L246.02,151.03L246.5,149.27L246.74,150.11L246.98,149.96L247.47,150.3L247.71,153.8L248.92,150.2L249.4,150.77L249.64,150.67L249.88,149.46L250.37,150.5L250.61,150.05L251.33,151.23L251.58,149.28L251.82,147.35L252.06,149.16L252.3,149.66L253.51,151.58L253.75,150.74L253.99,151.18L254.48,150.59L254.72,150.4L255.2,150.81L255.44,149.68L255.68,149.46L255.93,150.45L256.17,150.83L256.41,150.4L256.65,150.15L257.13,150.68L257.38,152.57L257.62,151.29L258.1,152.38L258.34,152.29L259.55,151.64L259.79,152.28L260.03,152.5L260.27,151.34L261,151.42L261.24,154.2L261.73,152.25L262.21,153.24L262.45,152.35L263.66,150.46L263.9,150.82L264.14,151.7L264.87,151.11L265.11,149.98L266.32,151.95L266.56,152.08L266.8,152.18L267.04,150.74L268.25,152.29L268.49,151.97L268.73,151.79L268.98,148.61L269.46,151.01L269.7,151.33L270.18,151.84L270.43,151.44L270.67,151.49L271.15,153.7L271.39,152.43L271.63,152.61L272.36,152.83L272.6,152.39L272.84,151.08L273.33,151.45L273.57,151.89L274.53,152.43L274.77,152.27L275.26,151.25L275.5,152.39L275.74,152.62L275.98,151.91L276.47,152.26L276.71,154.5L277.43,152.29L277.68,152.75L277.92,152.59L278.64,151.89L278.88,150.18L279.61,153.37L279.85,153.14L280.09,152.88L280.58,151.97L281.06,152.42L281.3,152.82L282.27,152.49L282.51,147.61L283.48,151.05L283.72,151.29L284.2,151.77L284.44,154.17L284.93,153.64L285.17,152.77L286.13,153.33L286.38,152.46L286.86,151.32L287.34,151.77L287.58,151.84L288.07,152.45L288.31,155.19L289.27,151.6L289.52,151.97L290.48,151.98L290.73,152.28L291.93,152.95L292.18,152.52L293.14,155.12L293.38,154.83L293.63,153.93L293.87,153.21L294.11,153.72L294.35,155.04L295.8,153.69L296.04,155.32L296.77,152.54L297.01,152.65L297.25,153.21L297.73,152.88L297.98,155.79L298.22,154.14L298.94,154.37L299.18,154.53L299.67,154L299.91,150.17L300.39,153.27L300.88,152.12L301.12,151.67L301.6,152.13L301.84,150.7L302.81,153.74L303.05,154.21L303.53,153.37L303.77,151.23L304.02,151.12L304.26,153L304.98,153.72L305.23,153.63L305.47,153.84L305.71,152.55L305.95,153.51L306.19,154.28L306.43,154.99L306.92,154.52L307.16,154.35L307.4,154.56L307.64,152.74L307.88,151.92L308.13,152.49L308.37,153.33L308.85,154.23L309.09,153.55L309.33,153.27L309.58,153.81L309.82,151.73L310.54,154.41L310.78,154.16L311.02,153.75L311.27,153.83L311.51,156.67L311.75,153.9L312.23,155.02L312.48,155.05L313.2,154.54L313.44,154.04L313.68,154.82L313.93,154.53L314.17,153.55L315.13,153.49L315.38,154.4L315.62,156.41L316.1,156.02L316.34,154.78L317.31,157.54L317.55,156.99L317.79,155.99L318.27,154.12L318.76,154.85L319,154.55L319.24,154.98L319.48,153.15L320.45,153.77L320.69,154.18L321.66,155.67L321.9,154.82L322.14,155.51L322.63,154.88L322.87,154.84L323.11,156.69L323.59,155.46L323.83,154.97L324.08,155.32L324.32,154.69L324.56,153.8L324.8,154.02L325.04,152.67L326.01,153.98L326.25,154.68L326.73,154.21L326.98,153.13L327.22,155.05L327.7,154.1L327.94,154.68L328.91,154.72L329.15,155.4L330.12,153.86L330.36,153.97L330.6,154.26L330.84,156.55L331.08,156.68L331.33,155.95L332.05,155.08L332.29,155.42L332.78,154.93L333.02,156.22L333.98,154.11L334.23,154.59L334.47,155.34L334.71,154.05L335.19,155.29L335.43,155.28L336.4,154.76L336.64,156.57L337.13,154.33L337.37,154.89L337.61,155.05L338.82,155.65L339.06,154.63L340.03,156L340.27,155.5L340.51,151.75L341.48,155.32L341.72,155.66L342.2,155.55L342.44,152.11L343.65,155.29L343.89,155.41L344.38,153.93L344.62,156.41L345.58,155.24L345.83,155.55L346.07,155.64L346.31,159.07L347.52,155.85L347.76,155.58L348,155.49L348.24,153.09L349.21,155.12L349.45,155.08L349.93,155.17L350.18,153.78L350.9,153.67L351.14,154.74L351.87,155.03L352.11,154.76L353.08,155.05L353.32,154.82L353.8,155.33L354.04,153.92L354.28,153.23L354.53,155.93L354.77,155.87L355.01,154.98L355.25,155.36L355.49,154.93L355.73,154.68L355.98,156.29L356.22,152.9L356.7,154.02L356.94,154.87L357.91,157.85L358.15,155.78L358.63,154.78L358.88,154.98L359.12,155.27L359.6,155.64L359.84,156.51L360.08,157.01L360.33,155.27L360.57,155.06L360.81,155.6L361.05,156.26L361.53,156.29L361.78,161.33L362.26,156.21L362.74,156.28L362.98,156.51L363.47,156.64L363.71,157.56L364.68,155.8L364.92,155.89L365.16,155.99L365.64,155.25L365.88,156.16L366.61,155.91L366.85,155.3L367.58,157.8L367.82,157.09L368.06,156.46L368.3,156.95L368.78,156.66L369.03,156.52L369.51,158.01L369.75,158.45L370.96,156.44L371.2,156.62L372.17,156.25L372.41,156.81L373.13,155.96L373.38,156.19L373.62,158.12L374.83,156.38L375.07,156.99L375.31,156.31L375.55,158.59L376.03,156.84L376.52,157.07L376.76,157.32L377,156.82L377.24,153.34L377.97,156.67L378.21,156.26L378.45,156.73L378.93,156.4L379.18,158.15L379.66,157.06L380.14,157.35L380.38,157.13L380.87,156.03L381.11,158.23L383.04,156.67L383.28,157.5L384.25,155.6L384.49,155.91L384.73,155.68L384.98,157.73L385.46,157.06L385.7,157.23L386.67,156.77L386.91,157.96L387.15,157.97L387.39,156.41L387.63,155.66L387.88,156.38L388.12,157.11L388.6,157.26L388.84,154.39L390.05,156.66L390.29,156.54L390.53,156.18L390.78,153.48L391.98,157.03L392.23,156.9L392.71,158.33L392.95,157.35L394.16,156.81L394.4,156.69L394.64,148.42L395.13,154.88L395.37,155.09L396.58,158.18L396.82,155.65L397.06,155.13L397.54,155.83L397.78,156.38L398.03,156.68L398.27,156.42L398.51,159.37L398.75,159.47L398.99,158.11L399.23,158.35L399.48,157.92L399.72,157.74L400.2,157.9L400.44,156.08L400.68,158.81L401.17,157.04L401.41,157.2L402.38,158.89L402.62,158.26L402.86,157.04L403.34,157.89L403.58,157.77L404.07,157.2L404.31,153.18L405.76,156.05L406,156.22L406.24,158.5L406.73,156.99L406.97,157.08L407.21,157.82L407.69,157.16L407.93,156.79L408.18,159.12L408.66,158.02L408.9,157.51L409.87,157.66L410.11,153.98L411.56,156.66L411.8,156.91L412.04,155.79L412.28,157.42L412.53,158.63L413.73,158.11L413.98,155.05L415.67,156.95L415.91,156.2L416.88,157.28L417.12,157.3L417.6,157.07L417.84,159.33L418.08,156.68L418.57,158.72L418.81,158.93L419.53,158.24L419.78,159.73L420.5,158.49L420.74,159.41L421.71,153.93L421.95,157.79L422.19,158.24L422.43,157.28L422.68,157.72L422.92,157.76L423.64,158.75L423.88,157.68L424.37,156.4L424.61,156.7L424.85,157.4L425.33,157.49L425.58,156.52L425.82,160.25L426.3,158.27L426.54,157.57L426.78,157.09L427.27,157.72L427.51,153.2L427.99,158.46L428.48,158.28L428.72,158.76L429.44,157.49L429.93,157.82L430.17,158.32L430.65,159.01L430.89,158.31L431.13,157.9L431.38,155.82L431.62,157.21L431.86,158.61L432.1,157.38L432.58,158.14L432.83,157.9L433.07,158.19L433.31,153.33L434.52,156.91L434.76,157.61L435,158.04L435.24,160.25L435.73,157.82L436.21,157.97L436.45,158.07L436.93,158.14L437.18,160.32L437.9,157.07L438.14,157.67L438.38,157.81L438.87,157.42L439.11,158.5L439.59,156.96L439.83,157.57L440.08,157.76L440.8,157.78L441.04,158.66L442.01,157.53L442.25,157.31L442.98,157.62L443.22,159.3L443.46,159.77L443.7,158.41L444.67,157.53L444.91,159.78L445.88,158.47L446.12,158.35L446.6,158.13L446.84,157.55L447.33,156.1L447.57,156.35L447.81,157.87L448.53,157.76L448.78,159.49L449.02,158.29L449.5,159.59L449.74,159.05L449.98,158.71L450.47,159.18L450.71,159.32L450.95,158.76L451.19,159.09L451.43,160.07L453.61,158.12L453.85,158.66L454.58,158.14L454.82,159.31L455.06,158.48L455.54,159.02L455.78,159.51L456.27,159.18L456.51,156.46L456.99,158.89L457.48,158.46L457.72,158.43L457.96,158.62L458.2,157.8L458.44,161.02L458.93,160.46L459.17,159.96L459.41,159.18L459.89,159.66L460.13,159.42L460.38,155.7L460.86,158.69L461.1,158.17L461.83,158.29L462.07,158.57L462.31,158.98L462.55,158.35L462.79,157.72L463.03,158.97L463.52,157.78L463.76,158.24L464,158.47L464.24,160.58L464.48,160.94L464.73,159.28L465.93,159.42L466.18,155.87L467.14,158.27L467.38,158.3L468.59,158.42L468.83,159.41L469.08,159.59L469.32,159.07L469.56,158.97L470.28,159.26L470.53,158.06L471.73,158.56L471.98,156.62L472.94,159.04L473.18,158.89L473.67,159.25L473.91,155.06L474.88,158.33L475.12,158.78L475.6,158.91L475.84,155.54L476.81,158.97L477.05,158.92L477.29,158.76L477.53,158.68L477.78,160.94L478.02,162.3L478.5,161.53L478.74,161.36L479.95,159.4L480.19,159.92L480.43,160.24L480.68,159.14L481.88,159.35L482.13,158.03L482.85,159.68L483.09,159.35L483.33,159.44L483.58,158.67L483.82,159.08L484.06,160.06L484.3,159.28L484.54,159.92L484.78,160.28L485.27,160.95L485.51,160.08L486.48,161.34L486.72,160.93L487.2,161.02L487.44,163.71L487.68,160.37L488.17,162.86L488.41,162.42L489.13,161.54L489.38,161.99L489.62,161.1L490.1,162.02L490.34,161.38L491.31,160.77L491.55,163.05L493,162.06L493.24,159.65L493.48,159.59L493.73,160.64L494.45,162.67L494.93,162.26L495.18,162.49L495.42,163.01L495.66,162.36L495.9,162.02L496.38,162.55L496.63,162.05L496.87,161.66L497.11,163.03L497.59,161.55L497.83,161.1L498.56,161.67L498.8,161.47L499.04,159.38L500.49,162.15L500.73,162.12L500.98,163.02L501.22,161.96L501.46,162.14L501.7,161.55L502.91,162.13L503.15,160.78L503.88,162.93L504.36,162.68L504.6,162.62L504.84,162.99L505.08,161.43L505.81,160.92L506.05,161.7L507.02,161.77L507.26,161.5L508.23,162.14L508.47,162.09L508.71,158.97L509.19,159.85L509.43,160.43L510.4,161.88L510.64,160.93L510.88,162.94L511.37,161.19L511.61,162.08L512.33,162.03L512.58,160.56L513.06,160.19L513.78,161.89L514.03,161.64L514.27,161.61L514.75,162.91L514.99,162.72L515.23,161.74L515.96,161.56L516.2,161.44L516.44,160.61L516.68,161.94L516.92,162.28L517.65,163.23L517.89,162.88L518.13,162.54L518.38,166.3L518.62,162.04L518.86,162.73L519.1,162.38L519.34,162.57L519.58,161.85L519.83,161.74L520.07,161.83L520.31,162.78L520.79,160.54L521.28,160.92L521.52,161.57L522,161.77L522.24,159.6L523.21,162.14L523.45,162.42L523.69,162.02L523.93,162.6L524.17,163.19L524.42,163.85L524.9,163.38L525.14,162.07L525.87,162.02L526.11,160.09L526.35,163.09L527.08,162.92L527.32,162.98L528.04,162.61L528.28,161.08L528.53,160.52L528.77,161.69L529.01,161.93L529.73,161.61L529.98,164.29L531.18,162.27L531.42,162.19L531.67,162.21L531.91,160.35L532.15,159.76L532.39,161.71L533.12,160.68L533.36,160.87L533.6,161.4L533.84,159.39L534.08,162.49L534.33,162.76L535.53,161.46L535.78,162.19L536.5,163.71L536.74,162.82L536.98,162.98L537.47,162.7L537.71,160.53L537.95,160.6L538.19,161.48L538.67,162.47L538.92,162.02L539.16,161.62L539.4,161.83L539.64,163.12L539.88,161.86L540.37,162.62L540.61,162.38L541.33,161.54L541.58,162.96L542.78,161.79L543.03,162.04L543.27,162.04L543.51,160.75L544.96,162.74L545.2,162.57L545.92,161.27L546.17,161.61L546.41,162.04L546.89,161.23L547.38,161.76L547.62,161.83L548.58,162.47L548.83,161.7L549.07,161.49L549.31,157.85L550.28,161.72L550.52,161.3L550.76,161.76L551,161.54L551.24,158.19L551.97,161.78L552.21,161.29L552.45,161.09L553.17,162.2L553.42,161.26L553.66,160.62L554.14,161.32L554.38,162.22L554.87,161.85L555.11,162.64L555.35,162.46L555.59,162.91L555.83,163.68L556.56,162.25L556.8,162.49L557.04,165.05L558.01,162.92L558.25,162.26L559.22,163.27L559.46,162.05L560.18,161.73L560.42,162.13L560.67,161.98L560.91,162.77L561.39,159.95L561.63,161.25L561.88,161.84L562.84,163.32L563.08,161.27L565.02,162.28L565.26,161.55L565.98,162.27L566.23,162.04L566.47,162.41L566.71,166.04L567.19,163.09L567.67,163.21L567.92,162.89L568.4,163.51L568.64,162.42L568.88,162.38L569.13,163.39L570.09,161.82L570.33,161.94L570.58,161.94L570.82,163.23L571.06,163.72L571.3,162.87L571.54,162.5L572.51,162.62L572.75,161.94L573.23,161.05L573.48,161.63L573.72,162.07L574.2,162.04L574.44,164.55L575.41,162.42L575.65,162.6L576.13,162.41L576.38,161.01L576.62,162.53L577.34,162.38L577.58,161.96L577.83,161.66L578.31,162.17L578.55,162.28L578.79,161.73L579.28,162.15L579.52,162.29L580,162.07" style="vector-effect: non-scaling-stroke; fill: none; stroke: rgb(31, 119, 180); stroke-opacity: 1; stroke-width: 2px; opacity: 1;"/><g class="points"/></g></g></g><g class="overplot"/><path class="xlines-above crisp" transform="translate(60,60)" d="M-1,330.5H580" style="fill: none; stroke-width: 1px; stroke: rgb(0, 0, 0); stroke-opacity: 0;"/><path class="ylines-above crisp" transform="translate(60,60)" d="M-0.5,0V330" style="fill: none; stroke-width: 1px; stroke: rgb(0, 0, 0); stroke-opacity: 0;"/><g class="overlines-above"/><g class="xaxislayer-above" transform="translate(60,60)"><g class="xtick"><text text-anchor="middle" x="0" y="343" transform="translate(0,0)" style="font-family: 'Open Sans', verdana, arial, sans-serif; font-size: 12px; fill: rgb(68, 68, 68); fill-opacity: 1; white-space: pre;">0</text></g><g class="xtick"><text text-anchor="middle" x="0" y="343" transform="translate(120.83,0)" style="font-family: 'Open Sans', verdana, arial, sans-serif; font-size: 12px; fill: rgb(68, 68, 68); fill-opacity: 1; white-space: pre;">500</text></g><g class="xtick"><text text-anchor="middle" x="0" y="343" transform="translate(241.67,0)" style="font-family: 'Open Sans', verdana, arial, sans-serif; font-size: 12px; fill: rgb(68, 68, 68); fill-opacity: 1; white-space: pre;">1000</text></g><g class="xtick"><text text-anchor="middle" x="0" y="343" transform="translate(362.5,0)" style="font-family: 'Open Sans', verdana, arial, sans-serif; font-size: 12px; fill: rgb(68, 68, 68); fill-opacity: 1; white-space: pre;">1500</text></g><g class="xtick"><text text-anchor="middle" x="0" y="343" transform="translate(483.33,0)" style="font-family: 'Open Sans', verdana, arial, sans-serif; font-size: 12px; fill: rgb(68, 68, 68); fill-opacity: 1; white-space: pre;">2000</text></g></g><g class="yaxislayer-above" transform="translate(60,60)"><g class="ytick"><text text-anchor="end" x="-1" y="4.199999999999999" transform="translate(0,313.5)" style="font-family: 'Open Sans', verdana, arial, sans-serif; font-size: 12px; fill: rgb(68, 68, 68); fill-opacity: 1; white-space: pre;">0</text></g><g class="ytick"><text text-anchor="end" x="-1" y="4.199999999999999" transform="translate(0,273.07)" style="font-family: 'Open Sans', verdana, arial, sans-serif; font-size: 12px; fill: rgb(68, 68, 68); fill-opacity: 1; white-space: pre;">1</text></g><g class="ytick"><text text-anchor="end" x="-1" y="4.199999999999999" transform="translate(0,232.64)" style="font-family: 'Open Sans', verdana, arial, sans-serif; font-size: 12px; fill: rgb(68, 68, 68); fill-opacity: 1; white-space: pre;">2</text></g><g class="ytick"><text text-anchor="end" x="-1" y="4.199999999999999" transform="translate(0,192.21)" style="font-family: 'Open Sans', verdana, arial, sans-serif; font-size: 12px; fill: rgb(68, 68, 68); fill-opacity: 1; white-space: pre;">3</text></g><g class="ytick"><text text-anchor="end" x="-1" y="4.199999999999999" transform="translate(0,151.78)" style="font-family: 'Open Sans', verdana, arial, sans-serif; font-size: 12px; fill: rgb(68, 68, 68); fill-opacity: 1; white-space: pre;">4</text></g><g class="ytick"><text text-anchor="end" x="-1" y="4.199999999999999" transform="translate(0,111.35)" style="font-family: 'Open Sans', verdana, arial, sans-serif; font-size: 12px; fill: rgb(68, 68, 68); fill-opacity: 1; white-space: pre;">5</text></g><g class="ytick"><text text-anchor="end" x="-1" y="4.199999999999999" transform="translate(0,70.93)" style="font-family: 'Open Sans', verdana, arial, sans-serif; font-size: 12px; fill: rgb(68, 68, 68); fill-opacity: 1; white-space: pre;">6</text></g><g class="ytick"><text text-anchor="end" x="-1" y="4.199999999999999" transform="translate(0,30.5)" style="font-family: 'Open Sans', verdana, arial, sans-serif; font-size: 12px; fill: rgb(68, 68, 68); fill-opacity: 1; white-space: pre;">7</text></g></g><g class="overaxes-above"/></g></g><g class="ternarylayer"/><g class="geolayer"/><g class="layer-above"><g class="imagelayer"/><g class="shapelayer"/></g><g class="pielayer"/><g class="glimages"/><defs id="topdefs-a8f8a4"><g class="clips"/></defs><g class="infolayer"><g class="g-gtitle"/><g class="g-xtitle"/><g class="g-ytitle"/></g></svg>